<?xml version="1.0" standalone="no"?><!DOCTYPE svg PUBLIC "-//W3C//DTD SVG 1.1//EN" "http://www.w3.org/Graphics/SVG/1.1/DTD/svg11.dtd"><svg t="1715703623246" class="icon" viewBox="0 0 1024 1024" version="1.1" xmlns="http://www.w3.org/2000/svg" p-id="1543" xmlns:xlink="http://www.w3.org/1999/xlink" width="128" height="128"><path d="M966.829213 466.944L762.989213 290.24a61.76 61.76 0 0 0-40.896-15.168 60.096 60.096 0 0 0-61.504 58.88 57.92 57.92 0 0 0 20.352 43.84l85.376 74.048H395.821213a58.944 58.944 0 1 0 0 117.824h371.2l-85.376 74.048a57.6 57.6 0 0 0-20.352 43.712 60.16 60.16 0 0 0 61.12 59.008 62.592 62.592 0 0 0 40.896-15.168l203.84-176.704a57.6 57.6 0 0 0 0-87.744z" fill="#d81e06" p-id="1544"></path><path d="M420.589213 903.808H162.541213V117.76h258.176c35.584 0 64.576-26.368 64.576-58.88S456.429213 0 420.717213 0H97.965213C62.317213 0 33.389213 26.368 33.389213 58.88v903.872c0 32.512 28.864 58.88 64.576 58.88H420.589213c35.584 0 64.576-26.368 64.576-58.88s-28.864-58.944-64.576-58.944z" fill="#d81e06" p-id="1545"></path></svg>