<?xml version="1.0" standalone="no"?><!DOCTYPE svg PUBLIC "-//W3C//DTD SVG 1.1//EN" "http://www.w3.org/Graphics/SVG/1.1/DTD/svg11.dtd"><svg t="1715560470690" class="icon" viewBox="0 0 1024 1024" version="1.1" xmlns="http://www.w3.org/2000/svg" p-id="7327" xmlns:xlink="http://www.w3.org/1999/xlink" width="128" height="128"><path d="M512 512m-512 0a512 512 0 1 0 1024 0 512 512 0 1 0-1024 0Z" fill="#F06262" p-id="7328"></path><path d="M516.310226 768.616971m-79.11364 0a79.11364 79.11364 0 1 0 158.22728 0 79.11364 79.11364 0 1 0-158.22728 0Z" fill="#FFFFFF" p-id="7329"></path><path d="M655.968402 234.123247c-37.305305-37.305305-86.902895-57.849573-139.662461-57.849573-52.75528 0-102.348586 20.544268-139.653891 57.845288-37.301021 37.301021-57.845289 86.902895-57.845288 139.653892 0 33.179314 26.885356 60.073238 60.068953 60.073238 33.183598 0 60.073238-26.893925 60.073239-60.073238 0-42.656669 34.708887-77.361272 77.361272-77.361272 42.660954 0 77.365556 34.704603 77.365556 77.361272 0 42.665238-34.704603 77.369841-77.365556 77.369841-33.175029 0-60.068954 26.898209-60.068954 60.073238v66.988452c0 33.179314 26.898209 60.073238 60.068954 60.073238 33.175029 0 60.073238-26.902494 60.073238-60.073238v-16.285456c79.614929-25.488603 137.421657-100.180619 137.421657-188.141791 0.004285-52.750996-20.531414-102.35287-57.836719-139.653891z" fill="#FFFFFF" p-id="7330"></path></svg>