<?xml version="1.0" standalone="no"?><!DOCTYPE svg PUBLIC "-//W3C//DTD SVG 1.1//EN" "http://www.w3.org/Graphics/SVG/1.1/DTD/svg11.dtd"><svg t="1715524615133" class="icon" viewBox="0 0 1024 1024" version="1.1" xmlns="http://www.w3.org/2000/svg" p-id="1700" xmlns:xlink="http://www.w3.org/1999/xlink" width="128" height="128"><path d="M512 1022.083593c-95.181535 0-383.281347-286.822208-383.281347-638.802246a383.281347 383.281347 0 0 1 766.562694 0c0 344.31441-293.849033 638.802246-383.281347 638.802246zM512 63.880225a319.401123 319.401123 0 0 0-319.401123 319.401122c0 319.401123 265.741734 574.922021 319.401123 574.922022 53.659389-6.388022 319.401123-255.520898 319.401123-574.922022a319.401123 319.401123 0 0 0-319.401123-319.401122z m0 511.041796a176.948222 176.948222 0 1 1 175.670618-175.670617A176.948222 176.948222 0 0 1 512 574.922021z m0-288.738615a113.067998 113.067998 0 1 0 111.790393 113.067998A113.067998 113.067998 0 0 0 512 286.183406z" fill="#9231ce" p-id="1701"></path></svg>