<?xml version="1.0" standalone="no"?><!DOCTYPE svg PUBLIC "-//W3C//DTD SVG 1.1//EN" "http://www.w3.org/Graphics/SVG/1.1/DTD/svg11.dtd"><svg t="1715560325527" class="icon" viewBox="0 0 1034 1024" version="1.1" xmlns="http://www.w3.org/2000/svg" p-id="5153" data-spm-anchor-id="a313x.search_index.0.i23.4e693a81mvXkvp" xmlns:xlink="http://www.w3.org/1999/xlink" width="129.25" height="128"><path d="M947.2 819.2H76.8c-42.496 0-76.8-34.304-76.8-76.8V281.6c0-42.496 34.304-76.8 76.8-76.8h870.4c42.496 0 76.8 34.304 76.8 76.8v460.8c0 42.496-34.304 76.8-76.8 76.8zM307.2 307.2c-56.32 0-102.4 45.568-102.4 102.4 0 56.32 46.08 102.4 102.4 102.4s102.4-46.08 102.4-102.4c0-56.832-46.08-102.4-102.4-102.4z m166.912 288.256c-25.6-19.456-99.328-32.256-99.328-32.256s-48.128 57.856-68.096 57.856c-20.48 0-68.096-57.856-68.096-57.856s-73.728 12.8-99.328 32.256C113.664 614.4 102.4 716.8 102.4 716.8h409.6s-7.68-98.816-37.888-121.344zM921.6 358.4h-307.2v51.2h307.2V358.4z m0 102.4h-307.2v51.2h307.2V460.8z m0 102.4h-307.2v51.2h307.2v-51.2z m0 102.4h-307.2v51.2h307.2v-51.2z" fill="#1296db" p-id="5154"></path></svg>