<?xml version="1.0" standalone="no"?><!DOCTYPE svg PUBLIC "-//W3C//DTD SVG 1.1//EN" "http://www.w3.org/Graphics/SVG/1.1/DTD/svg11.dtd"><svg t="1715154398965" class="icon" viewBox="0 0 1024 1024" version="1.1" xmlns="http://www.w3.org/2000/svg" p-id="2759" xmlns:xlink="http://www.w3.org/1999/xlink" width="128" height="128"><path d="M137.3 273.8h63.8c31.9 0 47.8 15.9 47.8 47.8s-15.9 47.8-47.8 47.8h-63.8c-31.9 0-47.8-15.9-47.8-47.8 0-31.8 15.9-47.8 47.8-47.8z m0 191.4h63.8c31.9 0 47.8 15.9 47.8 47.8s-15.9 47.8-47.8 47.8h-63.8c-31.9 0-47.8-15.9-47.8-47.8s15.9-47.8 47.8-47.8z m0 191.3h63.8c31.9 0 47.8 15.9 47.8 47.8s-15.9 47.8-47.8 47.8h-63.8c-31.9 0-47.8-15.9-47.8-47.8s15.9-47.8 47.8-47.8z m0 0" p-id="2760" fill="#18a5db" data-spm-anchor-id="a313x.search_index.0.i5.90753a815Ut6rS" class="selected"></path><path d="M870.7 98.5H233c-35.2 0-63.8 28.6-63.8 63.8v701.5c0 35.2 28.6 63.8 63.8 63.8h637.7c35.2 0 63.8-28.6 63.8-63.8V162.2c0-35.2-28.6-63.7-63.8-63.7zM652.5 615H546.4v65.6c0 13.8-11.7 25-26.1 25-14.4 0-26.1-11.2-26.1-25V615H387.5c-14.4 0-26.2-11.2-26.2-25s11.7-25 26.1-25h106.7v-31.7H387.5c-14.4 0-26.2-11.2-26.2-25s11.7-25 26.1-25h72.2l-73.9-125.5c-0.2-0.4-0.5-0.8-0.7-1.2-6.3-11.9-1.7-26.7 10.2-32.9 12.4-6.9 28.1-2.9 35.7 9.1l89 150.5h4.4l89-150.5c7.6-12 23.2-16 35.7-9.1 0.4 0.2 0.8 0.4 1.2 0.7 11.6 6.9 15.3 21.9 8.4 33.5l-73.9 125.5h67.7c14.4 0 26.2 11.2 26.2 25s-11.7 25-26.1 25h-106v31.7h106.1c14.4 0 26.2 11.2 26.2 25-0.2 13.7-11.9 24.9-26.3 24.9z m218.2 216.9c0 17.6-14.3 31.9-31.9 31.9h-31.9V162.2h31.9c17.6 0 31.9 14.3 31.9 31.9v637.8z m0 0" p-id="2761" fill="#18a5db" data-spm-anchor-id="a313x.search_index.0.i4.90753a815Ut6rS" class="selected"></path></svg>