<?xml version="1.0" standalone="no"?><!DOCTYPE svg PUBLIC "-//W3C//DTD SVG 1.1//EN" "http://www.w3.org/Graphics/SVG/1.1/DTD/svg11.dtd"><svg t="1715560408928" class="icon" viewBox="0 0 1024 1024" version="1.1" xmlns="http://www.w3.org/2000/svg" p-id="6312" xmlns:xlink="http://www.w3.org/1999/xlink" width="128" height="128"><path d="M714.6496 457.78944l-230.25664 146.47808 230.25664 146.4832 230.26176-146.4832-230.26176-146.47808z m-157.77792 146.47808l157.77792-100.37248 157.77792 100.37248-157.77792 100.3776-157.77792-100.3776zM203.36128 184.93952h588.37504v47.63136H203.36128zM201.73824 307.0976h588.37504v43.79648H201.73824zM201.73824 428.65152h226.82624v43.80672H201.73824zM201.73824 550.21568h187.48928v44.6208H201.73824z" p-id="6313"></path><path d="M944.90112 652.24704L714.6496 798.72l-230.25664-146.47296v50.2272l230.25664 146.48832 230.25152-146.48832z" p-id="6314"></path><path d="M944.90112 757.94944l-230.25152 146.47808-230.25664-146.47808v50.23744l230.25664 146.47808 230.25152-146.47808" p-id="6315"></path><path d="M869.5296 66.432H140.14976c-33.56672 0-60.78464 27.21792-60.78464 60.78464v776.38656c0 33.57696 27.2128 60.77952 60.78464 60.77952l284.34944-0.31232v-45.8752H160.4096a34.03776 34.03776 0 0 1-34.03776-34.03264V145.44896a34.03776 34.03776 0 0 1 34.03776-34.03776h688.86528a34.03776 34.03776 0 0 1 34.03776 34.03776v274.3296h46.99648V127.21664c0.00512-33.56672-27.20256-60.78464-60.77952-60.78464z" p-id="6316"></path></svg>